<?xml version="1.0" standalone="no"?>
<!DOCTYPE svg PUBLIC "-//W3C//DTD SVG 20010904//EN"
 "http://www.w3.org/TR/2001/REC-SVG-20010904/DTD/svg10.dtd">
<svg version="1.0" xmlns="http://www.w3.org/2000/svg"
 width="200.000000pt" height="200.000000pt" viewBox="0 0 200.000000 200.000000"
 preserveAspectRatio="xMidYMid meet">
<metadata>
Created by potrace 1.16, written by Peter Selinger 2001-2019
</metadata>
<g transform="translate(0.000000,200.000000) scale(0.027816,-0.027586)"
fill="#000000" stroke="none">
<path d="M0 3625 l0 -3625 3595 0 3595 0 0 3625 0 3625 -3595 0 -3595 0 0
-3625z m4791 2065 l0 -783 -68 -69 c-37 -37 -73 -68 -80 -68 -10 0 -13 136
-15 668 l-3 667 -472 -470 c-260 -258 -479 -471 -488 -473 -13 -3 -15 13 -15
100 l0 103 562 562 c310 309 566 559 571 554 5 -5 8 -361 8 -791z m-1787 234
l556 -555 0 -105 c0 -71 -4 -104 -11 -104 -7 0 -223 212 -482 471 -258 259
-473 466 -476 461 -3 -6 -6 -305 -6 -666 0 -492 -3 -657 -12 -660 -6 -3 -43
29 -82 71 l-71 76 0 783 c0 678 2 784 14 784 8 0 265 -250 570 -556z m120
-460 l436 -436 1 -51 c1 -81 -2 -162 -7 -166 -3 -3 -156 147 -342 332 -185
185 -347 344 -359 353 l-23 15 0 -386 0 -387 31 -39 c17 -21 35 -39 40 -39 5
0 9 135 9 324 0 179 4 327 8 330 5 3 151 -138 325 -312 l317 -318 0 -108 c0
-69 -4 -106 -10 -104 -6 2 -112 104 -237 228 -250 248 -240 243 -238 125 0
-27 2 -116 3 -196 l2 -147 31 -33 c30 -32 32 -33 40 -14 4 11 8 80 8 153 1 92
4 132 12 132 7 0 97 -85 200 -189 l189 -189 0 -276 c0 -191 -3 -276 -11 -276
-6 0 -206 195 -445 433 l-433 434 -1 614 c0 338 0 617 0 622 0 4 4 7 9 7 4 0
204 -196 445 -436z m1424 -185 l2 -614 -435 -435 c-239 -239 -440 -435 -447
-435 -10 0 -14 59 -16 263 -1 145 1 270 6 278 16 29 385 393 394 388 4 -3 8
-72 8 -155 0 -82 4 -149 8 -149 5 0 23 14 40 31 l32 31 0 220 c0 156 -3 219
-11 216 -6 -2 -112 -104 -234 -227 -126 -125 -228 -220 -234 -216 -7 4 -11 45
-11 104 l0 98 316 316 c174 175 320 317 325 317 11 0 11 1 9 -331 -1 -146 2
-278 6 -293 l7 -28 38 38 39 38 0 376 c0 206 -4 381 -8 388 -6 8 -116 -96
-360 -339 -193 -193 -356 -348 -362 -344 -6 4 -10 48 -10 107 l0 101 438 438
c240 241 442 437 447 435 6 -2 11 -218 13 -617z m-2117 -500 c44 -43 68 -74
62 -80 -5 -5 -284 -10 -673 -11 l-665 -3 478 -479 c310 -310 475 -482 469
-488 -6 -6 -53 -8 -109 -6 l-100 3 -556 556 c-307 306 -557 562 -557 568 0 8
218 11 790 11 l790 0 71 -71z m3999 61 c0 -5 -252 -262 -561 -570 l-560 -560
-99 0 c-56 0 -102 4 -105 10 -4 6 209 225 472 488 l478 477 -668 3 c-590 2
-667 4 -667 17 0 9 28 45 63 80 l62 65 793 0 c509 0 792 -3 792 -10z m-3389
-670 c242 -242 438 -444 434 -450 -4 -6 -103 -10 -277 -10 l-271 0 -194 193
c-106 107 -193 199 -193 205 0 8 48 12 156 14 l155 3 -34 38 -35 37 -221 0
c-121 0 -221 -3 -221 -8 0 -4 101 -108 225 -232 124 -123 225 -230 225 -237 0
-10 -25 -13 -102 -13 l-103 0 -315 314 c-173 173 -316 319 -318 325 -2 7 99
11 316 13 176 2 324 6 328 10 8 9 -30 49 -63 67 -15 8 -128 11 -375 11 -347 0
-402 -3 -396 -22 2 -5 158 -164 347 -352 203 -203 341 -348 337 -355 -5 -7
-44 -11 -107 -11 l-100 0 -441 441 c-331 332 -437 443 -427 450 8 5 287 9 622
9 l607 0 441 -440z m2795 415 c-9 -14 -208 -216 -443 -450 l-425 -425 -104 0
c-56 0 -105 4 -108 8 -3 5 152 166 345 358 192 192 349 354 349 361 0 9 -91
12 -384 13 l-385 0 -36 -37 c-28 -29 -33 -38 -21 -45 8 -4 137 -6 288 -5 282
4 351 1 346 -15 -2 -4 -145 -150 -318 -323 l-315 -315 -100 2 c-70 2 -100 7
-100 15 0 7 103 116 229 243 l229 230 -225 0 -226 0 -31 -29 c-17 -16 -31 -34
-31 -40 0 -8 48 -11 150 -11 102 0 150 -4 150 -11 0 -6 -87 -98 -193 -205
l-193 -194 -271 0 c-169 0 -274 4 -278 10 -3 5 191 208 432 450 l438 439 624
1 623 0 -16 -25z m-3743 -972 c4 -3 -210 -222 -474 -485 -265 -264 -479 -481
-476 -484 2 -2 304 -4 671 -4 545 0 666 -2 666 -13 0 -7 -29 -41 -64 -75 l-64
-62 -781 0 c-429 0 -781 3 -781 8 0 4 251 258 558 565 l557 557 91 0 c50 0 94
-3 97 -7z m347 -1 c0 -4 -160 -167 -355 -362 -195 -195 -355 -358 -355 -362 0
-5 182 -8 404 -8 l404 0 46 48 45 47 -334 3 c-184 1 -335 4 -335 7 0 2 142
146 316 320 l316 315 94 0 c52 0 94 -3 94 -7 0 -5 -107 -115 -237 -245 l-238
-238 241 0 240 0 42 41 c23 23 39 45 37 49 -3 5 -73 7 -156 6 -82 -1 -152 1
-155 3 -3 3 82 92 188 198 l193 193 261 0 c143 0 264 -3 267 -6 4 -4 -189
-202 -427 -440 l-434 -434 -611 0 c-336 0 -611 3 -611 7 0 5 195 203 432 440
l433 433 97 0 c54 0 98 -3 98 -8z m2029 -186 c106 -106 189 -196 185 -199 -5
-2 -76 -4 -157 -3 -82 1 -150 -1 -153 -5 -2 -4 15 -26 38 -48 l41 -41 241 0
241 0 -238 238 c-130 130 -237 240 -237 245 0 4 42 7 93 7 l93 0 317 -317 317
-318 -337 -5 -337 -5 49 -47 49 -48 403 0 c222 0 403 3 403 8 0 4 -160 167
-355 362 -195 195 -355 358 -355 362 0 5 44 8 97 8 l97 0 441 -440 440 -440
-619 0 -619 0 -433 433 c-239 237 -434 435 -434 440 0 4 120 7 268 7 l267 0
194 -194z m1396 -366 c305 -305 555 -558 555 -562 0 -5 -351 -8 -781 -8 l-780
0 -70 67 c-38 37 -69 70 -69 75 0 4 304 9 676 10 l676 3 -481 481 c-264 264
-477 484 -473 488 4 4 49 6 99 4 l93 -3 555 -555z m-1762 54 l437 -437 0 -608
c0 -335 -3 -609 -7 -609 -5 0 -203 195 -440 432 l-433 433 0 97 c0 54 3 98 8
98 4 0 167 -160 362 -355 195 -195 356 -355 357 -355 2 0 3 184 3 408 l0 408
-44 43 c-24 24 -46 39 -50 33 -3 -5 -4 -148 -2 -318 1 -170 1 -317 -2 -328 -4
-14 -76 53 -318 295 l-314 314 0 97 c0 54 3 98 8 98 4 0 110 -104 237 -230
126 -127 233 -230 237 -230 5 0 8 105 8 233 l0 233 -43 42 c-23 23 -46 42 -50
42 -3 0 -8 -72 -9 -160 l-3 -159 -192 191 -193 191 0 269 c0 147 1 268 3 268
1 0 199 -196 440 -436z m-543 163 l0 -262 -193 -193 c-106 -105 -196 -192
-200 -192 -4 0 -7 73 -7 161 l0 162 -44 -39 -44 -39 -1 -237 c-1 -131 2 -238
7 -238 4 0 111 104 237 230 126 127 233 230 237 230 5 0 8 -42 8 -93 l0 -94
-317 -318 -318 -318 -3 338 -2 339 -50 -49 -50 -49 0 -403 c0 -222 3 -403 8
-403 4 0 167 160 362 355 195 195 358 355 362 355 5 0 8 -44 8 -97 l0 -97
-440 -440 -440 -441 0 620 0 620 427 427 c236 236 434 428 440 428 10 0 13
-59 13 -263z m-978 -1382 l3 -676 480 481 c264 264 483 480 488 480 4 0 7 -43
7 -97 l0 -96 -557 -559 c-307 -307 -561 -558 -565 -558 -5 0 -8 352 -8 782 l0
781 67 69 c37 37 71 68 75 68 4 0 9 -304 10 -675z m2138 603 l69 -73 1 -777
c0 -428 -3 -778 -7 -778 -5 0 -259 251 -565 557 l-558 558 0 97 c0 54 1 98 3
98 2 0 219 -216 483 -480 263 -264 482 -480 487 -480 4 0 7 304 7 675 0 371 2
675 5 675 2 0 36 -33 75 -72z"/>
</g>
</svg>
