<?xml version="1.0" standalone="no"?>
<!DOCTYPE svg PUBLIC "-//W3C//DTD SVG 20010904//EN"
 "http://www.w3.org/TR/2001/REC-SVG-20010904/DTD/svg10.dtd">
<svg version="1.0" xmlns="http://www.w3.org/2000/svg"
 width="225.000000pt" height="225.000000pt" viewBox="0 0 225.000000 225.000000"
 preserveAspectRatio="xMidYMid meet">

<g transform="translate(0.000000,225.000000) scale(0.100000,-0.100000)"
fill="#000000" stroke="none">
<path d="M0 1125 l0 -1125 1125 0 1125 0 0 1125 0 1125 -1125 0 -1125 0 0
-1125z m1253 411 c18 -7 40 -23 50 -34 18 -20 18 -21 -13 -37 -31 -16 -35 -16
-66 1 -63 34 -120 -11 -110 -90 5 -46 20 -63 62 -72 24 -5 37 0 60 20 l29 25
-42 1 c-42 0 -43 1 -43 35 l0 35 80 0 80 0 0 -32 c0 -18 -8 -49 -18 -68 -54
-108 -220 -108 -274 0 -67 134 67 275 205 216z m-493 -31 c0 -33 -2 -35 -35
-35 l-35 0 0 -110 0 -110 -40 0 -40 0 0 110 0 110 -35 0 c-33 0 -35 2 -35 35
l0 35 110 0 110 0 0 -35z m170 -110 l0 -145 -45 0 -45 0 0 145 0 145 45 0 45
0 0 -145z m701 78 c12 -38 35 -103 50 -145 l28 -78 -43 0 c-38 0 -45 3 -50 25
-6 23 -11 25 -60 25 -50 0 -55 -2 -64 -28 -9 -25 -13 -27 -50 -24 l-41 4 50
141 c27 77 49 142 49 144 0 2 24 3 54 3 l54 0 23 -67z m-931 -386 l26 -88 25
88 26 88 40 3 c47 4 43 14 68 -155 21 -145 21 -143 -19 -143 -40 0 -42 4 -52
101 l-8 74 -26 -85 c-25 -81 -27 -85 -55 -85 -28 0 -30 4 -51 75 -13 41 -23
77 -25 80 -1 3 -7 -31 -13 -75 l-11 -80 -37 -3 c-46 -4 -45 -11 -18 158 11 69
20 129 20 133 0 5 19 7 42 5 l42 -3 26 -88z m483 -39 c25 -73 48 -141 52 -150
6 -15 1 -18 -34 -18 -35 0 -43 4 -51 25 -9 22 -15 25 -65 25 -50 0 -55 -2 -61
-25 -5 -21 -12 -25 -45 -25 -21 0 -39 4 -39 10 0 11 87 267 95 281 4 5 28 9
54 9 l49 0 45 -132z m242 92 c0 -32 -3 -35 -32 -38 l-33 -3 0 -110 0 -109 -40
0 -40 0 0 109 0 110 -32 3 c-30 3 -33 6 -36 41 l-3 38 108 -3 108 -3 0 -35z
m232 -110 l52 -150 -43 0 c-39 0 -45 3 -50 25 -6 25 -10 26 -64 23 -50 -3 -57
-6 -60 -25 -3 -20 -9 -23 -47 -23 l-44 0 51 150 52 150 50 0 51 0 52 -150z
m-1063 -226 c23 -9 20 -26 -4 -19 -26 8 -26 -11 1 -25 29 -16 22 -55 -10 -55
-13 0 -26 6 -29 14 -3 9 1 11 17 6 27 -8 28 11 1 25 -22 12 -27 46 -7 53 6 3
13 6 14 6 1 1 8 -2 17 -5z m1104 -22 c16 -21 15 -33 -4 -60 -28 -40 -94 -17
-94 34 0 47 67 65 98 26z m-885 10 c-7 -4 -13 -25 -15 -46 -3 -48 -18 -58 -18
-12 0 19 -7 42 -16 50 -14 15 -12 16 23 16 21 0 33 -4 26 -8z m169 -29 c2 -30
7 -38 23 -38 16 0 21 8 23 38 4 44 22 50 22 6 0 -42 -17 -69 -43 -69 -33 0
-47 19 -47 62 0 49 18 50 22 1z m282 31 c10 -4 16 -18 16 -40 0 -35 -20 -54
-59 -54 -18 0 -21 6 -21 50 0 46 2 50 24 50 13 0 31 -3 40 -6z m186 -44 c0
-27 -4 -50 -10 -50 -5 0 -10 23 -10 50 0 28 5 50 10 50 6 0 10 -22 10 -50z"/>
<path d="M1541 1439 c-7 -24 -15 -52 -17 -61 -4 -15 1 -18 31 -18 34 0 35 1
29 28 -4 15 -12 42 -19 61 l-11 33 -13 -43z"/>
<path d="M1072 1069 c-6 -26 -14 -54 -18 -63 -5 -13 1 -16 31 -16 36 0 36 0
30 33 -4 17 -13 45 -19 62 l-12 30 -12 -46z"/>
<path d="M1537 1058 c-9 -30 -17 -58 -17 -61 0 -4 16 -7 35 -7 40 0 41 4 16
73 l-17 49 -17 -54z"/>
<path d="M1631 776 c-17 -20 -4 -56 18 -56 28 0 47 28 34 48 -14 23 -37 26
-52 8z"/>
<path d="M1220 753 c0 -27 4 -34 18 -31 26 5 29 54 3 61 -18 4 -21 1 -21 -30z"/>
</g>
</svg>
