<?xml version="1.0" standalone="no"?>
<!DOCTYPE svg PUBLIC "-//W3C//DTD SVG 20010904//EN"
 "http://www.w3.org/TR/2001/REC-SVG-20010904/DTD/svg10.dtd">
<svg version="1.0" xmlns="http://www.w3.org/2000/svg"
 width="225.000000pt" height="225.000000pt" viewBox="0 0 225.000000 225.000000"
 preserveAspectRatio="xMidYMid meet">
<metadata>
Created by potrace 1.10, written by Peter Selinger 2001-2011
</metadata>
<g transform="translate(0.000000,225.000000) scale(0.100000,-0.100000)"
fill="#000000" stroke="none">
<path d="M531 1548 c-25 -40 0 -98 42 -98 15 0 17 -14 17 -104 0 -58 4 -107 8
-110 33 -20 111 -8 113 18 0 6 0 53 -1 104 -1 84 0 92 18 92 32 0 55 34 47 69
-9 44 -32 52 -139 50 -78 -2 -95 -5 -105 -21z m229 -43 c0 -33 -2 -35 -35 -35
l-35 0 0 -110 0 -110 -40 0 -40 0 0 110 0 110 -35 0 c-33 0 -35 2 -35 35 l0
35 110 0 110 0 0 -35z"/>
<path d="M845 1556 c-18 -13 -20 -30 -23 -158 -4 -160 -1 -169 61 -173 61 -5
67 11 67 170 0 125 -2 144 -18 158 -23 21 -62 22 -87 3z m85 -161 l0 -145 -42
0 -43 0 0 145 0 145 43 0 42 0 0 -145z"/>
<path d="M1105 1550 c-119 -59 -126 -230 -13 -303 35 -22 53 -27 98 -26 69 2
103 19 136 69 47 71 42 150 -9 150 l-20 0 20 23 21 22 -21 25 c-37 44 -55 52
-114 56 -44 3 -68 -1 -98 -16z m150 -16 c18 -8 41 -24 50 -34 16 -18 15 -19
-16 -35 -30 -16 -35 -16 -60 -1 -38 22 -66 20 -94 -9 -50 -49 -18 -155 45
-155 24 0 61 18 72 34 15 22 7 28 -32 23 -40 -5 -40 -5 -40 29 l0 34 80 0 80
0 0 -32 c0 -80 -68 -148 -149 -148 -92 0 -152 53 -158 142 -6 70 19 115 77
146 52 26 99 28 145 6z m-45 -84 c12 -8 11 -10 -7 -10 -12 0 -28 -9 -36 -20
-16 -23 -11 -69 9 -77 16 -6 19 -23 4 -23 -21 0 -50 41 -50 70 0 31 30 70 53
70 6 0 19 -5 27 -10z"/>
<path d="M1514 1561 c-12 -5 -26 -16 -30 -23 -18 -27 -101 -287 -95 -296 3 -6
23 -13 43 -17 34 -6 41 -4 67 24 36 39 81 42 104 7 20 -30 73 -41 103 -21 23
15 24 23 4 70 -5 11 -25 67 -45 125 -20 58 -42 111 -49 118 -16 17 -75 24
-102 13z m143 -166 l50 -145 -43 0 c-37 0 -43 3 -48 25 -6 25 -10 26 -63 23
-52 -3 -58 -5 -63 -28 -5 -22 -10 -24 -45 -21 -22 1 -40 4 -41 4 0 1 22 66 50
145 l50 142 51 0 52 0 50 -145z"/>
<path d="M1541 1442 c-7 -26 -15 -55 -18 -64 -4 -15 1 -18 31 -18 20 0 36 3
36 8 0 4 -8 33 -18 64 l-18 57 -13 -47z m16 -54 c-3 -8 -6 -5 -6 6 -1 11 2 17
5 13 3 -3 4 -12 1 -19z"/>
<path d="M581 1187 c-6 -8 -15 -45 -21 -83 -5 -38 -11 -78 -14 -89 -24 -124
-17 -155 39 -155 37 0 65 25 66 61 1 23 1 22 14 -6 7 -17 22 -38 32 -47 25
-23 62 -5 84 41 l16 34 7 -35 c4 -20 14 -39 22 -42 25 -9 72 -7 79 4 4 6 -10
10 -33 10 -46 0 -47 3 -58 120 l-7 74 -24 -89 c-13 -49 -28 -94 -32 -98 -5 -5
-19 -7 -31 -5 -23 3 -45 55 -66 155 -7 34 -9 28 -18 -57 l-11 -95 -39 -3 -39
-3 6 38 c3 21 14 89 23 151 l17 113 41 -3 41 -3 25 -92 26 -92 25 92 25 92 41
3 41 3 10 -63 c6 -35 16 -99 22 -143 13 -88 32 -115 79 -115 37 0 82 22 76 38
-3 8 8 12 36 12 32 0 46 -6 61 -25 21 -27 74 -35 96 -13 9 9 18 9 37 0 34 -15
82 -15 87 0 3 9 11 9 35 -1 45 -18 96 -11 108 17 8 18 18 22 51 22 33 0 43 -5
54 -25 11 -20 21 -25 51 -25 21 0 45 7 53 16 17 17 21 40 8 46 -4 2 -28 59
-51 128 -24 69 -48 131 -54 138 -5 7 -32 12 -62 12 -30 0 -57 -5 -63 -12 -6
-7 -25 -56 -42 -108 -18 -52 -41 -113 -51 -135 l-18 -40 0 88 c-1 76 1 87 17
87 29 1 52 26 52 58 0 52 -19 61 -128 60 -108 0 -127 -8 -127 -53 0 -37 10
-54 41 -65 23 -9 24 -14 24 -91 0 -45 -2 -80 -5 -77 -6 6 -58 147 -80 219 -19
59 -28 65 -92 67 -63 2 -62 4 -118 -166 -21 -62 -40 -111 -42 -109 -2 3 -5 17
-7 33 -10 76 -23 159 -26 159 -1 0 -3 13 -4 29 -2 34 -29 56 -70 56 -44 0 -54
-10 -72 -70 l-16 -54 -14 33 c-8 18 -14 39 -14 46 0 39 -92 63 -119 32z m605
-149 c27 -78 51 -146 53 -151 1 -4 -16 -7 -40 -5 -36 2 -44 7 -49 26 -3 13 -8
23 -12 23 -5 -1 -30 -1 -58 -1 -45 0 -50 -3 -56 -25 -5 -22 -12 -25 -49 -25
l-42 0 44 128 c66 188 55 172 111 172 l49 0 49 -142z m244 103 l0 -40 -35 6
-35 6 0 -117 0 -116 -40 0 -40 0 0 116 0 116 -35 -6 -35 -7 0 41 0 40 110 0
110 0 0 -39z m226 -111 l51 -150 -42 0 c-38 0 -43 3 -48 28 -5 26 -7 27 -66
24 -57 -4 -61 -5 -61 -28 0 -22 -4 -24 -44 -24 l-45 0 52 150 52 150 50 0 50
0 51 -150z"/>
<path d="M1070 1067 c-7 -28 -15 -58 -17 -64 -4 -9 7 -13 35 -13 l40 0 -19 62
c-11 34 -21 63 -23 65 -1 1 -8 -21 -16 -50z"/>
<path d="M1537 1060 c-10 -34 -16 -65 -13 -67 2 -2 19 -3 38 -1 l33 3 -20 64
-21 64 -17 -63z"/>
<path d="M553 815 c-19 -13 -22 -23 -19 -64 2 -27 6 -54 10 -60 8 -12 53 -5
74 12 18 14 6 97 -16 114 -22 16 -23 16 -49 -2z m41 -11 c23 -9 20 -26 -4 -19
-26 8 -26 -11 1 -25 29 -16 22 -55 -10 -55 -13 0 -26 6 -29 14 -3 9 1 11 17 6
27 -8 28 11 1 25 -22 12 -27 46 -7 53 6 3 13 6 14 6 1 1 8 -2 17 -5z"/>
<path d="M1622 814 c-57 -40 -53 -104 7 -124 33 -11 42 -10 65 5 14 10 27 22
28 29 7 46 1 62 -29 84 -38 26 -42 27 -71 6z m76 -32 c16 -21 15 -33 -4 -60
-28 -40 -94 -17 -94 34 0 47 67 65 98 26z"/>
<path d="M1630 775 c-18 -22 -8 -50 19 -50 32 0 49 28 32 49 -17 20 -35 20
-51 1z m29 -26 c-16 -10 -23 -4 -14 10 3 6 11 8 17 5 6 -4 5 -9 -3 -15z"/>
<path d="M746 811 c-8 -13 10 -101 23 -114 21 -21 45 7 53 58 4 27 5 52 2 57
-7 11 -71 10 -78 -1z m62 -18 c-12 -3 -16 -14 -15 -45 1 -23 -3 -43 -9 -45 -8
-3 -10 11 -6 43 4 41 3 46 -12 41 -9 -4 -16 -2 -16 3 0 6 17 9 38 9 20 -1 29
-3 20 -6z"/>
<path d="M950 800 c-23 -43 0 -106 42 -115 45 -10 68 16 68 77 0 54 -22 76
-45 45 -11 -15 -14 -16 -25 -2 -17 20 -27 19 -40 -5z m100 -31 c0 -42 -17 -69
-43 -69 -33 0 -47 19 -47 62 0 49 18 50 22 1 2 -30 7 -38 23 -38 16 0 21 8 23
43 4 47 22 48 22 1z m-43 -11 c-3 -8 -6 -5 -6 6 -1 11 2 17 5 13 3 -3 4 -12 1
-19z"/>
<path d="M1192 811 c-9 -5 -12 -25 -10 -61 3 -49 6 -54 32 -63 60 -20 113 66
70 114 -18 20 -68 25 -92 10z m76 -23 c7 -7 12 -24 12 -40 0 -29 -23 -48 -59
-48 -18 0 -21 6 -21 50 0 48 1 50 28 50 15 0 33 -5 40 -12z"/>
<path d="M1220 754 c0 -28 3 -35 18 -32 21 4 29 47 10 59 -23 15 -28 10 -28
-27z"/>
<path d="M1423 803 c-5 -10 -7 -27 -7 -38 1 -11 2 -30 3 -43 1 -26 27 -40 44
-23 6 6 10 30 8 53 -3 60 -31 89 -48 51z m27 -53 c0 -27 -4 -50 -10 -50 -5 0
-10 23 -10 50 0 28 5 50 10 50 6 0 10 -22 10 -50z"/>
</g>
</svg>
